PathFileType	4	(X/Y/Z)	C:/Users/empri/Downloads/Take 2024-05-09 02.19.33 PM.trc
DataRate	CameraRate	NumFrames	NumMarkers	Units	OrigDataRate	OrigDataStartFrame	OrigNumFrames
240	240	21	9	mm	240	420	841
Frame#	Time	C7	CLAV	RELB	RFIN	RFRM	RSHO	RUPA	RWRA	RWRB
X1	Y1	Z1	X2	Y2	Z2	X3	Y3	Z3	X4	Y4	Z4	X5	Y5	Z5	X6	Y6	Z6	X7	Y7	Z7	X8	Y8	Z8	X9	Y9	Z9
420	1.75	-147.081	1555.9	-94.3306	25.4868	1394.68	-138.121	86.2155	1653.59	259.742	333.943	1792.79	434.232	138.58	1693.81	366.778	-43.1767	1568.3	8.6725	-1.22583	1585.47	143.945	289.474	1727.38	391.133	232.162	1712.82	465.955
421	1.754	-147.114	1555.89	-94.4059	25.4193	1394.68	-138.163	86.2356	1653.56	259.679	334.109	1792.63	434.091	138.639	1693.73	366.702	-43.221	1568.3	8.58826	-1.24922	1585.48	143.887	289.531	1727.28	391.019	232.296	1712.7	465.852
422	1.758	-147.153	1555.9	-94.4813	25.3618	1394.67	-138.208	86.2775	1653.5	259.621	334.254	1792.41	433.942	138.723	1693.64	366.634	-43.2936	1568.28	8.5406	-1.2546	1585.48	143.827	289.628	1727.12	390.903	232.431	1712.55	465.771
423	1.763	-147.204	1555.89	-94.5855	25.2884	1394.66	-138.274	86.3596	1653.4	259.55	334.447	1792.08	433.823	138.845	1693.49	366.554	-43.3446	1568.24	8.47512	-1.2505	1585.45	143.758	289.796	1726.84	390.787	232.61	1712.31	465.671
424	1.767	-147.251	1555.91	-94.6564	25.2009	1394.64	-138.331	86.4486	1653.27	259.507	334.653	1791.76	433.745	138.96	1693.35	366.503	-43.374	1568.22	8.42443	-1.23449	1585.41	143.715	289.965	1726.57	390.679	232.763	1712.07	465.589
425	1.771	-147.276	1555.91	-94.733	25.1538	1394.64	-138.38	86.5512	1653.13	259.468	334.91	1791.39	433.693	139.094	1693.18	366.461	-43.3994	1568.19	8.37994	-1.21568	1585.36	143.691	290.138	1726.25	390.639	232.92	1711.79	465.493
426	1.775	-147.303	1555.9	-94.8076	25.1101	1394.64	-138.458	86.6598	1652.98	259.441	335.235	1790.94	433.684	139.245	1692.96	366.398	-43.4189	1568.17	8.34225	-1.17907	1585.3	143.655	290.31	1725.89	390.577	233.1	1711.47	465.451
427	1.779	-147.326	1555.9	-94.8756	25.0529	1394.62	-138.509	86.753	1652.88	259.342	335.522	1790.48	433.673	139.418	1692.71	366.367	-43.4357	1568.14	8.30808	-1.15666	1585.24	143.626	290.485	1725.51	390.529	233.279	1711.09	465.432
428	1.783	-147.347	1555.9	-94.9339	25.0029	1394.6	-138.565	86.8915	1652.61	259.37	335.827	1789.91	433.674	139.62	1692.37	366.356	-43.4435	1568.1	8.27783	-1.10038	1585.15	143.6	290.738	1725.06	390.48	233.491	1710.71	465.396
429	1.787	-147.362	1555.89	-94.9909	24.9607	1394.58	-138.636	87.0418	1652.34	259.373	336.151	1789.28	433.683	139.825	1692.05	366.36	-43.4338	1568.06	8.24788	-1.0412	1585.02	143.589	290.993	1724.58	390.478	233.755	1710.25	465.388
430	1.792	-147.377	1555.87	-95.0622	24.8819	1394.53	-138.743	87.2469	1652.02	259.367	336.647	1788.49	433.71	140.119	1691.59	366.414	-43.4217	1568.02	8.21017	-0.940568	1584.84	143.593	291.297	1723.93	390.474	234.08	1709.63	465.404
431	1.796	-147.385	1555.87	-95.1408	24.8313	1394.5	-138.805	87.4208	1651.74	259.386	337.026	1787.81	433.754	140.35	1691.21	366.458	-43.406	1567.98	8.18565	-0.860276	1584.71	143.595	291.561	1723.3	390.474	234.324	1709.09	465.404
432	1.8	-147.39	1555.86	-95.1946	24.7848	1394.48	-138.882	87.6135	1651.43	259.42	337.399	1787.03	433.823	140.576	1690.79	366.507	-43.3858	1567.94	8.16391	-0.77287	1584.57	143.596	291.873	1722.68	390.544	234.583	1708.5	465.443
433	1.804	-147.39	1555.86	-95.2502	24.7282	1394.45	-138.959	87.7939	1651.07	259.479	337.825	1786.25	433.91	140.809	1690.32	366.559	-43.3711	1567.9	8.14965	-0.6874	1584.41	143.616	292.175	1722.02	390.589	234.895	1707.85	465.47
434	1.808	-147.389	1555.85	-95.3038	24.6818	1394.42	-139.031	88.0032	1650.71	259.524	338.265	1785.43	433.983	141.094	1689.82	366.63	-43.3565	1567.86	8.13348	-0.594589	1584.21	143.622	292.502	1721.33	390.639	235.249	1707.19	465.561
435	1.813	-147.395	1555.83	-95.3812	24.6346	1394.39	-139.118	88.2913	1650.21	259.619	338.806	1784.3	434.132	141.477	1689.17	366.726	-43.329	1567.8	8.10842	-0.456638	1583.99	143.654	292.906	1720.34	390.747	235.646	1706.27	465.645
436	1.817	-147.397	1555.82	-95.4181	24.594	1394.36	-139.191	88.5096	1649.8	259.724	339.273	1783.39	434.272	141.781	1688.64	366.802	-43.3037	1567.75	8.09634	-0.350956	1583.8	143.688	293.249	1719.53	390.841	236.004	1705.4	465.62
437	1.821	-147.4	1555.81	-95.4473	24.5609	1394.33	-139.248	88.735	1649.4	259.79	339.735	1782.42	434.446	142.078	1688.08	366.889	-43.2785	1567.7	8.09503	-0.231476	1583.62	143.737	293.628	1718.68	390.931	236.375	1704.59	465.723
438	1.825	-147.399	1555.82	-95.5027	24.5176	1394.31	-139.311	89.0137	1648.98	259.873	340.179	1781.43	434.6	142.426	1687.48	367.02	-43.2535	1567.64	8.10688	-0.113667	1583.43	143.799	293.974	1717.8	391.074	236.717	1703.67	465.844
439	1.829	-147.412	1555.81	-95.5193	24.4745	1394.28	-139.369	89.3058	1648.51	260.008	340.685	1780.4	434.74	142.745	1686.86	367.081	-43.2256	1567.58	8.12213	0.0421745	1583.22	143.856	294.404	1716.83	391.241	237.134	1702.81	466.02
440	1.833	-147.41	1555.81	-95.5585	24.4391	1394.26	-139.445	89.5957	1648.04	260.118	341.269	1779.28	434.963	143.092	1686.26	367.185	-43.1894	1567.52	8.12801	0.181498	1583	143.922	294.79	1715.9	391.388	237.534	1701.86	466.177
